# xmcd CD database file
#
# Track frame offsets:
#	150
#	18568
#	32033
#	49756
#	62283
#
# Disc length: 1127 seconds
#
# Revision: 0
# Processed by: cddbd v1.4PL0 Copyright (c) Steve Scherf et al.
# Submitted via: CDex 1.50
#
DISCID=36046505
DTITLE=The Last Deal - The Last Deal
DYEAR=1900
DGENRE=Jazz
TTITLE0=The Last Deal - Why I Sing the Blues
TTITLE1=The Last Deal - Boom Boom
TTITLE2=The Last Deal - Rollin' and Tumblin'
TTITLE3=The Last Deal - Spoonful
TTITLE4=The Last Deal - Whipping Post
EXTD=
EXTT0=
EXTT1=
EXTT2=
EXTT3=
EXTT4=
PLAYORDER=
